<svg xmlns="http://www.w3.org/2000/svg" viewBox="0 0 512 512" role="img" aria-labelledby="title desc">
<title id="title">القرآن الكريم</title><desc id="desc">مصحف مفتوح ذهبي على خلفية خضراء</desc>
<defs><radialGradient id="bg"><stop stop-color="#15956e"/><stop offset="1" stop-color="#063c31"/></radialGradient><linearGradient id="gold" x1="0" y1="0" x2="1" y2="1"><stop stop-color="#ffe58a"/><stop offset="1" stop-color="#b77918"/></linearGradient></defs>
<rect width="512" height="512" rx="48" fill="url(#bg)"/>
<path d="M256 155c-45-43-105-48-157-23v214c53-25 112-19 157 24z" fill="url(#gold)" stroke="#f7d66f" stroke-width="8"/>
<path d="M256 155c45-43 105-48 157-23v214c-53-25-112-19-157 24z" fill="url(#gold)" stroke="#f7d66f" stroke-width="8"/>
<path d="M256 155v215" stroke="#8d5e16" stroke-width="9"/>
<path d="M139 188c29-10 61-6 91 10M139 226c29-10 61-6 91 10M373 188c-29-10-61-6-91 10M373 226c-29-10-61-6-91 10" fill="none" stroke="#8d5e16" stroke-width="8" stroke-linecap="round"/>
<circle cx="256" cy="104" r="28" fill="url(#gold)"/><path d="M256 75v58M227 104h58" stroke="#f7d66f" stroke-width="7" stroke-linecap="round"/>
</svg>
